<svg width="58" height="58" viewBox="0 0 58 58" fill="none" xmlns="http://www.w3.org/2000/svg">
<circle cx="29" cy="29" r="29" fill="#FFD670"/>
<path d="M21 35C24.3137 35 27 32.3137 27 29C27 25.6863 24.3137 23 21 23C17.6863 23 15 25.6863 15 29C15 32.3137 17.6863 35 21 35Z" stroke="white" stroke-width="2" stroke-linecap="round" stroke-linejoin="round"/>
<path d="M39 35C42.3137 35 45 32.3137 45 29C45 25.6863 42.3137 23 39 23C35.6863 23 33 25.6863 33 29C33 32.3137 35.6863 35 39 35Z" stroke="white" stroke-width="2" stroke-linecap="round" stroke-linejoin="round"/>
<path d="M21 35H39" stroke="white" stroke-width="2" stroke-linecap="round" stroke-linejoin="round"/>
</svg>
