<svg width="58" height="58" viewBox="0 0 58 58" fill="none" xmlns="http://www.w3.org/2000/svg">
<circle cx="29" cy="29" r="29" fill="white"/>
<path d="M29 0C12.9836 0 0 12.9836 0 29C0 45.0164 12.9836 58 29 58C45.0164 58 58 45.0164 58 29C58 12.9836 45.0164 0 29 0Z" fill="#40B3E0"/>
<path d="M43.1094 16.682L37.9295 42.7976C37.9295 42.7976 37.2052 44.6087 35.213 43.7394L23.2601 34.5754L18.9137 32.4747L11.5971 30.0116C11.5971 30.0116 10.4742 29.6133 10.3655 28.7439C10.2567 27.8746 11.6333 27.4038 11.6333 27.4038L40.7185 15.9941C40.7185 15.9941 43.1092 14.9438 43.1092 16.6824" fill="white"/>
<path d="M22.342 42.5038C22.342 42.5038 21.993 42.4711 21.558 41.0945C21.1237 39.7182 18.9141 32.4741 18.9141 32.4741L36.4813 21.3181C36.4813 21.3181 37.4956 20.7023 37.4593 21.3181C37.4593 21.3181 37.6404 21.4269 37.0968 21.9339C36.5538 22.4412 23.2969 34.3577 23.2969 34.3577" fill="#D2E5F1"/>
<path d="M27.8454 38.0885L23.1177 42.3991C23.1177 42.3991 22.7479 42.6796 22.3438 42.5038L23.2491 34.4971" fill="#B5CFE4"/>
</svg>
