<svg width="36" height="35" viewBox="0 0 36 35" fill="none" xmlns="http://www.w3.org/2000/svg">
<ellipse cx="18.4653" cy="17.5" rx="17.4887" ry="17.5" fill="#F13C77"/>
<path d="M13.2188 25.375L23.712 9.625" stroke="white" stroke-width="2" stroke-linecap="round" stroke-linejoin="round"/>
<path d="M14.0921 14.875C15.5409 14.875 16.7154 13.6997 16.7154 12.25C16.7154 10.8003 15.5409 9.625 14.0921 9.625C12.6432 9.625 11.4688 10.8003 11.4688 12.25C11.4688 13.6997 12.6432 14.875 14.0921 14.875Z" stroke="white" stroke-width="2" stroke-linecap="round" stroke-linejoin="round"/>
<path d="M22.8342 25.375C24.2831 25.375 25.4576 24.1997 25.4576 22.75C25.4576 21.3003 24.2831 20.125 22.8342 20.125C21.3854 20.125 20.2109 21.3003 20.2109 22.75C20.2109 24.1997 21.3854 25.375 22.8342 25.375Z" stroke="white" stroke-width="2" stroke-linecap="round" stroke-linejoin="round"/>
</svg>
