<svg width="36" height="35" viewBox="0 0 36 35" fill="none" xmlns="http://www.w3.org/2000/svg">
<ellipse cx="18.4653" cy="17.5" rx="17.4887" ry="17.5" fill="url(#paint0_linear_1660_78727)"/>
<path d="M18.4633 7.82031L17.9301 8.59994C17.9301 8.59994 17.5766 9.09409 17.2336 9.68669C17.0618 9.98397 16.9004 10.2944 16.7621 10.6094C16.6243 10.9244 16.4958 11.2144 16.4958 11.5938C16.4958 12.6733 17.3844 13.5625 18.4633 13.5625C19.5421 13.5625 20.4308 12.6733 20.4308 11.5938C20.4308 11.2144 20.3029 10.9244 20.1645 10.6094C20.0261 10.2944 19.8648 9.98397 19.693 9.68669C19.35 9.09409 18.9958 8.59928 18.9958 8.59928L18.4633 7.82031ZM18.4633 13.5625H16.4958V16.1875H12.5608C11.1114 16.1875 9.93751 17.3622 9.93751 18.8125C9.93587 19.4542 10.1692 20.0742 10.5933 20.5555V25.375H26.3332V20.5555C26.7574 20.0742 26.9907 19.4542 26.989 18.8125C26.989 17.3622 25.8151 16.1875 24.3657 16.1875H20.4308V13.5625H18.4633ZM18.4633 10.1992C18.5066 10.2714 18.502 10.2662 18.5453 10.3429C18.7013 10.612 18.8679 10.8988 18.9755 11.1422C19.083 11.3864 19.1191 11.6115 19.1191 11.5938C19.1191 11.958 18.8273 12.25 18.4633 12.25C18.0993 12.25 17.8074 11.958 17.8074 11.5938C17.8074 11.6115 17.8435 11.3864 17.9511 11.1422C18.0586 10.8994 18.2252 10.612 18.3813 10.3429C18.4246 10.2662 18.42 10.2708 18.4633 10.1992ZM17.8074 14.875H19.1191V16.1875H17.8074V14.875ZM12.5608 17.5H24.3657C25.1468 17.5 25.6774 18.0309 25.6774 18.8125C25.6774 19.5941 25.1468 20.125 24.3657 20.125C23.5846 20.125 23.0541 19.5941 23.0541 18.8125H21.7424C21.7424 19.5941 21.2119 20.125 20.4308 20.125C19.6497 20.125 19.1191 19.5941 19.1191 18.8125H17.8074C17.8074 19.5941 17.2769 20.125 16.4958 20.125C15.7147 20.125 15.1841 19.5941 15.1841 18.8125H13.8725C13.8725 19.5941 13.3419 20.125 12.5608 20.125C11.7797 20.125 11.2492 19.5941 11.2492 18.8125C11.2492 18.0309 11.7797 17.5 12.5608 17.5ZM14.5283 20.5555C14.7748 20.8339 15.0778 21.0566 15.4171 21.2087C15.7563 21.3608 16.1241 21.4388 16.4958 21.4375C16.8675 21.4388 17.2353 21.3608 17.5745 21.2087C17.9138 21.0566 18.2168 20.8339 18.4633 20.5555C18.7098 20.8339 19.0128 21.0566 19.352 21.2087C19.6913 21.3608 20.059 21.4388 20.4308 21.4375C20.8025 21.4388 21.1702 21.3608 21.5095 21.2087C21.8487 21.0566 22.1517 20.8339 22.3982 20.5555C22.6448 20.8339 22.9477 21.0566 23.287 21.2087C23.6262 21.3608 23.994 21.4388 24.3657 21.4375C24.594 21.4375 24.8117 21.3889 25.0216 21.3351V24.0625H11.905V21.3351C12.1149 21.3889 12.3326 21.4375 12.5608 21.4375C12.9326 21.4388 13.3003 21.3608 13.6396 21.2087C13.9788 21.0566 14.2818 20.8339 14.5283 20.5555Z" fill="white"/>
<defs>
<linearGradient id="paint0_linear_1660_78727" x1="35.9541" y1="17.6" x2="0.976562" y2="17.6" gradientUnits="userSpaceOnUse">
<stop stop-color="#F8ACFF"/>
<stop offset="1" stop-color="#696EFF"/>
</linearGradient>
</defs>
</svg>
