<svg width="326" height="287" viewBox="0 0 326 287" fill="none" xmlns="http://www.w3.org/2000/svg">
<rect width="326" height="287" fill="#301039"/>
<rect width="326" height="287" fill="url(#paint0_radial_1660_83758)" fill-opacity="0.4"/>
<rect width="326" height="287" fill="url(#paint1_radial_1660_83758)" fill-opacity="0.2"/>
<g opacity="0.1">
<path fill-rule="evenodd" clip-rule="evenodd" d="M288.349 207.367C289.87 207.367 291.104 208.601 291.104 210.122V235.435C291.104 236.956 289.87 238.19 288.349 238.19C286.827 238.19 285.594 236.956 285.594 235.435V210.122C285.594 208.601 286.827 207.367 288.349 207.367Z" fill="white"/>
<path fill-rule="evenodd" clip-rule="evenodd" d="M272.938 222.779C272.938 221.257 274.171 220.023 275.693 220.023H301.005C302.527 220.023 303.76 221.257 303.76 222.779C303.76 224.3 302.527 225.534 301.005 225.534H275.693C274.171 225.534 272.938 224.3 272.938 222.779Z" fill="white"/>
<path fill-rule="evenodd" clip-rule="evenodd" d="M200.833 157.775C202.355 157.775 203.588 159.009 203.588 160.53V181.624C203.588 183.146 202.355 184.379 200.833 184.379C199.312 184.379 198.078 183.146 198.078 181.624V160.53C198.078 159.009 199.312 157.775 200.833 157.775Z" fill="white"/>
<path fill-rule="evenodd" clip-rule="evenodd" d="M187.531 171.077C187.531 169.556 188.765 168.322 190.286 168.322H211.38C212.902 168.322 214.135 169.556 214.135 171.077C214.135 172.599 212.902 173.832 211.38 173.832H190.286C188.765 173.832 187.531 172.599 187.531 171.077Z" fill="white"/>
<path fill-rule="evenodd" clip-rule="evenodd" d="M262.091 243.184C263.613 243.184 264.846 244.417 264.846 245.939V262.814C264.846 264.335 263.613 265.569 262.091 265.569C260.569 265.569 259.336 264.335 259.336 262.814V245.939C259.336 244.417 260.569 243.184 262.091 243.184Z" fill="white"/>
<path fill-rule="evenodd" clip-rule="evenodd" d="M250.898 254.376C250.898 252.855 252.132 251.621 253.654 251.621H270.529C272.05 251.621 273.284 252.855 273.284 254.376C273.284 255.898 272.05 257.131 270.529 257.131H253.654C252.132 257.131 250.898 255.898 250.898 254.376Z" fill="white"/>
<path fill-rule="evenodd" clip-rule="evenodd" d="M192.843 244.212C192.272 244.784 192.272 245.71 192.843 246.282L203.75 257.189C204.322 257.761 205.248 257.761 205.82 257.189L284.238 178.771C284.81 178.199 284.81 177.272 284.238 176.701L273.332 165.794C272.76 165.222 271.833 165.222 271.262 165.794L192.843 244.212ZM188.947 250.178C186.223 247.455 186.223 243.039 188.947 240.316L267.365 161.897C270.089 159.174 274.504 159.174 277.228 161.897L288.135 172.804C290.858 175.528 290.858 179.943 288.135 182.667L209.716 261.085C206.993 263.809 202.577 263.809 199.854 261.085L188.947 250.178Z" fill="white"/>
<path fill-rule="evenodd" clip-rule="evenodd" d="M244.994 184.24C246.07 183.164 247.815 183.164 248.891 184.24L265.766 201.115C266.842 202.191 266.842 203.935 265.766 205.011C264.69 206.087 262.945 206.087 261.869 205.011L244.994 188.136C243.919 187.06 243.919 185.316 244.994 184.24Z" fill="white"/>
</g>
<defs>
<radialGradient id="paint0_radial_1660_83758" cx="0" cy="0" r="1" gradientUnits="userSpaceOnUse" gradientTransform="translate(329.5 27) rotate(148.885) scale(194.48 239.518)">
<stop stop-color="#B04DFF"/>
<stop offset="1" stop-color="#B04DFF" stop-opacity="0"/>
</radialGradient>
<radialGradient id="paint1_radial_1660_83758" cx="0" cy="0" r="1" gradientUnits="userSpaceOnUse" gradientTransform="translate(-11 287) rotate(-32.39) scale(189.479 266.201)">
<stop stop-color="#FF3838"/>
<stop offset="1" stop-color="#FF3838" stop-opacity="0"/>
</radialGradient>
</defs>
</svg>
