<svg width="36" height="35" viewBox="0 0 36 35" fill="none" xmlns="http://www.w3.org/2000/svg">
<path d="M18.4653 0C8.80437 0 0.976562 7.83285 0.976562 17.5C0.976562 25.2873 6.06606 31.8783 13.0912 34.1512C12.4649 29.48 12.8293 23.9771 14.7364 19.6191C16.8371 14.8397 22.4105 12.1281 22.4105 12.1281C22.4105 12.1281 16.1938 13.313 13.0969 18.4798C11.4516 21.2199 10.5407 26.062 10.5407 26.062C10.5407 26.062 4.68267 18.1494 11.7135 11.5129C16.4102 7.0752 26.2248 7.97526 28.9688 9.55892C25.331 15.3296 27.4829 21.3509 23.532 24.974C19.1883 28.9673 14.3778 28.2837 14.3778 28.2837C14.3778 28.2837 14.2639 31.0067 15.505 34.7266C16.4671 34.8975 17.452 35 18.4653 35C28.1262 35 35.9541 27.1672 35.9541 17.5C35.9541 7.83285 28.1262 0 18.4653 0Z" fill="#FFD670"/>
</svg>
