<svg width="36" height="35" viewBox="0 0 36 35" fill="none" xmlns="http://www.w3.org/2000/svg">
<ellipse cx="18.4653" cy="17.5" rx="17.4887" ry="17.5" fill="white"/>
<g clip-path="url(#clip0_1660_78679)">
<path d="M18.4653 0C8.80647 0 0.976562 7.83494 0.976562 17.5C0.976562 27.1651 8.80647 35 18.4653 35C28.1242 35 35.9541 27.1651 35.9541 17.5C35.9541 7.83494 28.1242 0 18.4653 0Z" fill="#40B3E0"/>
<path d="M26.9768 10.0667L23.853 25.8262C23.853 25.8262 23.4162 26.9191 22.2148 26.3945L15.0065 20.8645L12.3853 19.5969L7.97298 18.1105C7.97298 18.1105 7.29584 17.8701 7.23025 17.3455C7.16467 16.8209 7.99484 16.5368 7.99484 16.5368L25.535 9.65166C25.535 9.65166 26.9767 9.01784 26.9767 10.067" fill="white"/>
<path d="M14.45 25.6488C14.45 25.6488 14.2396 25.6291 13.9773 24.7984C13.7154 23.9679 12.3828 19.5964 12.3828 19.5964L22.9769 12.8644C22.9769 12.8644 23.5886 12.4928 23.5667 12.8644C23.5667 12.8644 23.6759 12.93 23.3481 13.236C23.0206 13.5421 15.0259 20.7331 15.0259 20.7331" fill="#D2E5F1"/>
<path d="M17.7709 22.9846L14.9199 25.5859C14.9199 25.5859 14.6969 25.7551 14.4531 25.649L14.9991 20.8174" fill="#B5CFE4"/>
</g>
<defs>
<clipPath id="clip0_1660_78679">
<rect width="34.9775" height="35" fill="white" transform="translate(0.976562)"/>
</clipPath>
</defs>
</svg>
