<svg id="Layer_1" data-name="Layer 1" xmlns="http://www.w3.org/2000/svg" viewBox="0 0 20 20"><defs><style>.cls-1{fill-rule:evenodd;}</style></defs><path class="cls-1" d="M5,3.25H7.18a6.45,6.45,0,0,1,.81,0,1,1,0,0,1,.63.28,1.08,1.08,0,0,1,.29.64,6.37,6.37,0,0,1,0,.8V7.18a6.21,6.21,0,0,1,0,.8,1,1,0,0,1-.29.64A1,1,0,0,1,8,8.9a6.45,6.45,0,0,1-.81,0H5a6.37,6.37,0,0,1-.8,0,1.06,1.06,0,0,1-.64-.28A1,1,0,0,1,3.28,8a6.21,6.21,0,0,1,0-.8V5a6.37,6.37,0,0,1,0-.8,1.06,1.06,0,0,1,.28-.64,1.06,1.06,0,0,1,.64-.28A6.37,6.37,0,0,1,5,3.25ZM4.3,4a.37.37,0,0,0-.23.08S4,4.14,4,4.29A4.75,4.75,0,0,0,4,5V7.16a4.61,4.61,0,0,0,0,.73c0,.15,0,.2.08.23s.07.06.23.08a6.79,6.79,0,0,0,.73,0H7.16a6.9,6.9,0,0,0,.73,0c.16,0,.2,0,.23-.08s.06-.08.08-.23a6.29,6.29,0,0,0,0-.73V5a6.49,6.49,0,0,0,0-.74c0-.15,0-.2-.08-.23A.41.41,0,0,0,7.89,4a6.9,6.9,0,0,0-.73,0H5A6.79,6.79,0,0,0,4.3,4Z"/><path class="cls-1" d="M5,11.07H7.18a6.45,6.45,0,0,1,.81,0,1,1,0,0,1,.63.28,1,1,0,0,1,.29.64,6.21,6.21,0,0,1,0,.8V15a6.37,6.37,0,0,1,0,.8,1.08,1.08,0,0,1-.29.64,1,1,0,0,1-.63.28,6.45,6.45,0,0,1-.81,0H5a6.37,6.37,0,0,1-.8,0,1.06,1.06,0,0,1-.64-.28,1.06,1.06,0,0,1-.28-.64,6.37,6.37,0,0,1,0-.8V12.82a6.21,6.21,0,0,1,0-.8,1,1,0,0,1,.28-.64,1.06,1.06,0,0,1,.64-.28A6.37,6.37,0,0,1,5,11.07Zm-.7.73c-.16,0-.21,0-.23.08S4,12,4,12.11a4.61,4.61,0,0,0,0,.73V15a4.75,4.75,0,0,0,0,.74c0,.15,0,.2.08.23A.37.37,0,0,0,4.3,16,6.79,6.79,0,0,0,5,16H7.16a6.9,6.9,0,0,0,.73,0,.41.41,0,0,0,.23-.08s.06-.08.08-.23a6.49,6.49,0,0,0,0-.74V12.84a6.29,6.29,0,0,0,0-.73c0-.15,0-.2-.08-.23s-.07-.06-.23-.08a6.9,6.9,0,0,0-.73,0H5A6.79,6.79,0,0,0,4.3,11.8Z"/><path class="cls-1" d="M12.82,3.25H15a6.37,6.37,0,0,1,.8,0,1.06,1.06,0,0,1,.64.28,1.06,1.06,0,0,1,.28.64,6.37,6.37,0,0,1,0,.8V7.18a6.21,6.21,0,0,1,0,.8,1,1,0,0,1-.28.64,1.06,1.06,0,0,1-.64.28,6.37,6.37,0,0,1-.8,0H12.82a6.45,6.45,0,0,1-.81,0,1,1,0,0,1-.63-.28A1,1,0,0,1,11.09,8a6.21,6.21,0,0,1,0-.8V5a6.37,6.37,0,0,1,0-.8,1.08,1.08,0,0,1,.29-.64A1,1,0,0,1,12,3.28,6.45,6.45,0,0,1,12.82,3.25ZM12.11,4a.41.41,0,0,0-.23.08s-.06.08-.08.23a6.49,6.49,0,0,0,0,.74V7.16a6.29,6.29,0,0,0,0,.73c0,.15,0,.2.08.23s.07.06.23.08a6.9,6.9,0,0,0,.73,0H15a6.79,6.79,0,0,0,.73,0c.16,0,.21,0,.23-.08S16,8,16,7.89a4.61,4.61,0,0,0,0-.73V5a4.75,4.75,0,0,0,0-.74c0-.15-.05-.2-.08-.23A.37.37,0,0,0,15.7,4,6.79,6.79,0,0,0,15,4H12.84A6.9,6.9,0,0,0,12.11,4Z"/><path class="cls-1" d="M12.82,11.07H15a6.37,6.37,0,0,1,.8,0,1.06,1.06,0,0,1,.64.28,1,1,0,0,1,.28.64,6.21,6.21,0,0,1,0,.8V15a6.37,6.37,0,0,1,0,.8,1,1,0,0,1-.92.92,6.37,6.37,0,0,1-.8,0H12.82a6.45,6.45,0,0,1-.81,0,1,1,0,0,1-.63-.28,1.08,1.08,0,0,1-.29-.64,6.37,6.37,0,0,1,0-.8V12.82a6.21,6.21,0,0,1,0-.8,1,1,0,0,1,.29-.64A1,1,0,0,1,12,11.1,6.45,6.45,0,0,1,12.82,11.07Zm-.71.73c-.16,0-.2,0-.23.08s-.06.08-.08.23a6.29,6.29,0,0,0,0,.73V15a6.49,6.49,0,0,0,0,.74c0,.15,0,.2.08.23a.41.41,0,0,0,.23.08,6.9,6.9,0,0,0,.73,0H15a6.79,6.79,0,0,0,.73,0,.37.37,0,0,0,.23-.08s.06-.08.08-.23A4.75,4.75,0,0,0,16,15V12.84a4.61,4.61,0,0,0,0-.73c0-.15-.05-.2-.08-.23s-.07-.06-.23-.08a6.79,6.79,0,0,0-.73,0H12.84A6.9,6.9,0,0,0,12.11,11.8Z"/></svg>