<svg id="Layer_1" data-name="Layer 1" xmlns="http://www.w3.org/2000/svg" viewBox="0 0 20 20"><defs><style>.cls-1{fill-rule:evenodd;}</style></defs><path class="cls-1" d="M17.11,13.58c-.12-.23-.29-.52-.5-.87l-.51-.86a6.14,6.14,0,0,1-.84-2.49L15,7.43A5.07,5.07,0,0,0,5,7.43L4.74,9.36a6.28,6.28,0,0,1-.83,2.49l-.52.86c-.21.35-.38.64-.49.87a1.26,1.26,0,0,0-.16.78,1.3,1.3,0,0,0,.43.77,1.41,1.41,0,0,0,.75.26,9.66,9.66,0,0,0,1,0H7.18s0,0,0,0a3.4,3.4,0,0,0,1,1.78,2.64,2.64,0,0,0,3.6,0,3.46,3.46,0,0,0,1-1.78h2.26a9.56,9.56,0,0,0,1,0,1.41,1.41,0,0,0,.75-.26,1.25,1.25,0,0,0,.43-.77A1.32,1.32,0,0,0,17.11,13.58Zm-5.87,3a1.89,1.89,0,0,1-1.24.49,1.92,1.92,0,0,1-1.25-.49,2.61,2.61,0,0,1-.7-1.17h3.89A2.52,2.52,0,0,1,11.24,16.59Zm5.06-2.1a.69.69,0,0,1-.3.07c-.22,0-.51,0-.94,0H4.94c-.43,0-.72,0-.94,0s-.28-.06-.29-.07a.46.46,0,0,1-.15-.26.73.73,0,0,1,.09-.29,7.83,7.83,0,0,1,.47-.82l.5-.85a7.05,7.05,0,0,0,1-2.81l.22-1.94a4.24,4.24,0,0,1,8.42,0l.22,1.94a7.05,7.05,0,0,0,1,2.81l.51.85c.22.37.37.62.46.82a.56.56,0,0,1,.09.29A.51.51,0,0,1,16.3,14.49Z"/></svg>