<svg id="Layer_1" data-name="Layer 1" xmlns="http://www.w3.org/2000/svg" viewBox="0 0 20 20"><defs><style>.cls-1{fill-rule:evenodd;}</style></defs><path class="cls-1" d="M16.63,7.78A1.28,1.28,0,0,0,16.3,7a1.28,1.28,0,0,0-.75-.33,5.21,5.21,0,0,0-.6,0,2.92,2.92,0,0,0,.86-1.76,5.66,5.66,0,0,0,0-.65V4.07a.84.84,0,0,0-.74-.73H5.41A2.09,2.09,0,0,0,3.33,5.42V13A14,14,0,0,0,3.4,14.8a2.07,2.07,0,0,0,.54,1.26,2.13,2.13,0,0,0,1.26.54,14,14,0,0,0,1.85.07h7.56a6.5,6.5,0,0,0,.94,0,1.22,1.22,0,0,0,.75-.33,1.25,1.25,0,0,0,.33-.75,8.65,8.65,0,0,0,0-.94V8.72A8.65,8.65,0,0,0,16.63,7.78ZM5.41,4.17H15v.06a3.83,3.83,0,0,1,0,.59,2.07,2.07,0,0,1-1.83,1.83,3.83,3.83,0,0,1-.59,0H5.41a1.25,1.25,0,0,1,0-2.5Zm10.42,9.16H14.58c-.4,0-.67,0-.86,0a.47.47,0,0,1-.27-.1.42.42,0,0,1-.09-.27,6.32,6.32,0,0,1,0-.86,6.49,6.49,0,0,1,0-.86c0-.18.06-.23.09-.26s.09-.08.27-.1a6.41,6.41,0,0,1,.86,0h1.25Zm0-3.33H14.55a8.74,8.74,0,0,0-.94,0,1.15,1.15,0,0,0-1.08,1.08,8.94,8.94,0,0,0,0,1v0a8.65,8.65,0,0,0,0,.94,1.13,1.13,0,0,0,1.08,1.08,6.57,6.57,0,0,0,.94,0h1.28v.41a6.32,6.32,0,0,1,0,.86.42.42,0,0,1-.09.27.47.47,0,0,1-.27.1c-.19,0-.45,0-.86,0H7.08a16.78,16.78,0,0,1-1.77-.05,1.3,1.3,0,0,1-.78-.31,1.33,1.33,0,0,1-.31-.78,14.09,14.09,0,0,1-.06-1.77V7.08a2.11,2.11,0,0,0,1.25.42h9.17a6.32,6.32,0,0,1,.86,0,.32.32,0,0,1,.36.36,6.41,6.41,0,0,1,0,.86Z"/></svg>