<svg id="Layer_1" data-name="Layer 1" xmlns="http://www.w3.org/2000/svg" viewBox="0 0 18.49 16.33"><defs><style>.cls-1{fill-rule:evenodd;}</style></defs><path class="cls-1" d="M5.86.27A.61.61,0,0,1,6.36,0h5.77a.61.61,0,0,1,.5.27l1.26,1.89h2.56a2,2,0,0,1,2,2V14.29a2,2,0,0,1-2,2H2a2,2,0,0,1-2-2V4.2a2,2,0,0,1,2-2H4.6Zm.83.93L5.42,3.1a.61.61,0,0,1-.5.26H2a.85.85,0,0,0-.84.84V14.29a.85.85,0,0,0,.84.84H16.45a.85.85,0,0,0,.84-.84V4.2a.85.85,0,0,0-.84-.84H13.57a.61.61,0,0,1-.5-.26L11.8,1.2Z"/><path class="cls-1" d="M9.25,6.24a2.64,2.64,0,1,0,2.64,2.64A2.64,2.64,0,0,0,9.25,6.24ZM5.41,8.88a3.84,3.84,0,1,1,3.84,3.85A3.84,3.84,0,0,1,5.41,8.88Z"/></svg>