<svg id="Layer_1" data-name="Layer 1" xmlns="http://www.w3.org/2000/svg" viewBox="0 0 20 20"><defs><style>.cls-1{fill-rule:evenodd;}</style></defs><path class="cls-1" d="M9.66,1.79l3.63.52a19.9,19.9,0,0,1,2.4.43,2.86,2.86,0,0,1,1.51.85,2.86,2.86,0,0,1,.63,1.61,21.23,21.23,0,0,1,.08,2.44v4.72a21.23,21.23,0,0,1-.08,2.44,2.86,2.86,0,0,1-.63,1.61,2.86,2.86,0,0,1-1.51.85,19.9,19.9,0,0,1-2.4.43l-3.63.52a16.74,16.74,0,0,1-2.09.22A2.1,2.1,0,0,1,6.13,18a2.13,2.13,0,0,1-.64-1.37,15.72,15.72,0,0,1-.08-2.1v-.3h.84v.27a15.66,15.66,0,0,0,.07,2,1.25,1.25,0,0,0,.36.85,1.28,1.28,0,0,0,.89.24,18.06,18.06,0,0,0,2-.22l3.57-.51a21.66,21.66,0,0,0,2.32-.41A1.8,1.8,0,0,0,17,14.69a21.67,21.67,0,0,0,.07-2.36V7.67A21.67,21.67,0,0,0,17,5.31a2.05,2.05,0,0,0-.44-1.17,2,2,0,0,0-1.1-.6,21.66,21.66,0,0,0-2.32-.41L9.58,2.62a18.06,18.06,0,0,0-2-.22,1.28,1.28,0,0,0-.89.24,1.25,1.25,0,0,0-.36.85,15.66,15.66,0,0,0-.07,2v.43H5.41V5.48a15.72,15.72,0,0,1,.08-2.1A2.13,2.13,0,0,1,6.13,2a2.1,2.1,0,0,1,1.44-.44A16.74,16.74,0,0,1,9.66,1.79Z"/><path class="cls-1" d="M10.33,5.57l-.66.52,2.8,3.49H3.33a.42.42,0,0,0,0,.84h9.14l-2.8,3.49.66.52L13.87,10Z"/></svg>