<svg id="Layer_1" data-name="Layer 1" xmlns="http://www.w3.org/2000/svg" viewBox="0 0 12 13"><defs><style>.cls-1{fill-rule:evenodd;}</style></defs><path class="cls-1" d="M6,7.9A1.4,1.4,0,1,0,4.6,6.5,1.4,1.4,0,0,0,6,7.9Zm0,.6a2,2,0,1,0-2-2A2,2,0,0,0,6,8.5Z"/><path class="cls-1" d="M3.8,4.6A8.47,8.47,0,0,0,2.22,6.06c-.25.3-.28.35-.28.44s0,.14.28.44A8.47,8.47,0,0,0,3.8,8.4,3.92,3.92,0,0,0,6,9.2a4,4,0,0,0,2.21-.8A8.38,8.38,0,0,0,9.78,6.94c.26-.3.28-.35.28-.44s0-.14-.28-.44A8.38,8.38,0,0,0,8.21,4.6,4,4,0,0,0,6,3.8,3.92,3.92,0,0,0,3.8,4.6Zm-.35-.49A4.56,4.56,0,0,1,6,3.2a4.56,4.56,0,0,1,2.56.91,9.28,9.28,0,0,1,1.68,1.56l0,0a1.21,1.21,0,0,1,.38.79,1.21,1.21,0,0,1-.38.79l0,0A9.28,9.28,0,0,1,8.56,8.89,4.56,4.56,0,0,1,6,9.8a4.56,4.56,0,0,1-2.55-.91A9,9,0,0,1,1.77,7.33l0,0a1.22,1.22,0,0,1-.39-.79,1.22,1.22,0,0,1,.39-.79l0,0A9,9,0,0,1,3.45,4.11Z"/></svg>