<svg id="Layer_1" data-name="Layer 1" xmlns="http://www.w3.org/2000/svg" viewBox="0 0 20 20"><defs><style>.cls-1{fill-rule:evenodd;}</style></defs><path class="cls-1" d="M16,7.26a5.25,5.25,0,0,0-1.55-1.67l-.07-.07-.86-.73a18.43,18.43,0,0,0-1.88-1.51A2.85,2.85,0,0,0,10,2.71a2.85,2.85,0,0,0-1.62.57A18.43,18.43,0,0,0,6.5,4.79l-.86.73-.07.07A5.25,5.25,0,0,0,4,7.26a5.41,5.41,0,0,0-.27,2.27V13.2a16.34,16.34,0,0,0,.06,1.85,2.14,2.14,0,0,0,.55,1.26,2.1,2.1,0,0,0,1.26.54,14,14,0,0,0,1.85.07h5.06a14,14,0,0,0,1.85-.07,2.1,2.1,0,0,0,1.26-.54,2.14,2.14,0,0,0,.55-1.26,16.34,16.34,0,0,0,.06-1.85V9.53A5.41,5.41,0,0,0,16,7.26Zm-4.31,8.82H8.33V12.33a.41.41,0,0,1,.42-.41h2.5a.41.41,0,0,1,.42.41Zm3.75-2.91a14.09,14.09,0,0,1-.06,1.77,1.33,1.33,0,0,1-.31.78,1.3,1.3,0,0,1-.78.31,16.78,16.78,0,0,1-1.77,0V12.33a1.25,1.25,0,0,0-1.25-1.25H8.75A1.25,1.25,0,0,0,7.5,12.33v3.75a16.78,16.78,0,0,1-1.77,0A1.3,1.3,0,0,1,5,15.72a1.33,1.33,0,0,1-.31-.78,14.09,14.09,0,0,1-.06-1.77V9.63a5.1,5.1,0,0,1,.19-2A5.36,5.36,0,0,1,6.18,6.15L7,5.44A21.33,21.33,0,0,1,8.84,4,2.06,2.06,0,0,1,10,3.54,2.06,2.06,0,0,1,11.16,4,21.33,21.33,0,0,1,13,5.44l.84.71a5.36,5.36,0,0,1,1.41,1.46,5.1,5.1,0,0,1,.19,2Z"/></svg>