<svg id="Layer_1" data-name="Layer 1" xmlns="http://www.w3.org/2000/svg" viewBox="0 0 20 20"><defs><style>.cls-1{fill-rule:evenodd;}</style></defs><path class="cls-1" d="M17.65,10.86H16.29V9.5a.34.34,0,1,0-.68,0v1.36H14.25a.34.34,0,0,0-.34.34.35.35,0,0,0,.34.34h1.36v1.35a.34.34,0,0,0,.68,0V11.54h1.36A.35.35,0,0,0,18,11.2.34.34,0,0,0,17.65,10.86Z"/><path class="cls-1" d="M4.75,4.75h.68v.68a.34.34,0,0,0,.68,0V4.75h.68a.34.34,0,0,0,0-.68H6.11V3.39a.34.34,0,1,0-.68,0v.68H4.75a.34.34,0,0,0,0,.68Z"/><path class="cls-1" d="M14.25,15.27h-1v-1a.34.34,0,0,0-.34-.34.34.34,0,0,0-.34.34v1h-1a.34.34,0,0,0-.33.34.34.34,0,0,0,.33.34h1v1a.34.34,0,0,0,.34.34.34.34,0,0,0,.34-.34V16h1a.34.34,0,0,0,.34-.34A.34.34,0,0,0,14.25,15.27Z"/><path class="cls-1" d="M16.45,4.09,14.91,2.55a.94.94,0,0,0-1.32,0l-11,11a.92.92,0,0,0,0,1.32l1.53,1.53a.92.92,0,0,0,1.32,0l11-11A.94.94,0,0,0,16.45,4.09ZM4.93,16a.25.25,0,0,1-.36,0L3,14.43a.25.25,0,0,1,0-.36l8-8L12.92,8Zm11-11L13.4,7.49,11.51,5.6,14.07,3a.25.25,0,0,1,.36,0L16,4.57A.25.25,0,0,1,16,4.93Z"/></svg>