<svg id="Layer_1" data-name="Layer 1" xmlns="http://www.w3.org/2000/svg" viewBox="0 0 12 13"><defs><style>.cls-1{fill-rule:evenodd;}</style></defs><path class="cls-1" d="M9.55,3a.27.27,0,0,1,0,.39L2.84,10.05a.28.28,0,0,1-.39-.39L9.17,3A.28.28,0,0,1,9.55,3Z"/><path class="cls-1" d="M3.58,3a1,1,0,1,0,0,2.07A1,1,0,0,0,3.58,3ZM2,4.08a1.58,1.58,0,1,1,3.15,0A1.58,1.58,0,0,1,2,4.08Z"/><path class="cls-1" d="M8.42,7.89a1,1,0,1,0,1,1A1,1,0,0,0,8.42,7.89Zm-1.58,1A1.58,1.58,0,1,1,8.42,10.5,1.57,1.57,0,0,1,6.84,8.92Z"/></svg>