<svg id="Layer_1" data-name="Layer 1" xmlns="http://www.w3.org/2000/svg" viewBox="0 0 20 20"><defs><style>.cls-1{fill-rule:evenodd;}</style></defs><path class="cls-1" d="M12.5,9.58a.41.41,0,0,0-.41.42,2.09,2.09,0,0,1-4.17,0,.42.42,0,0,0-.42-.42.41.41,0,0,0-.41.42A2.92,2.92,0,0,0,10,12.92,2.92,2.92,0,0,0,12.92,10,.42.42,0,0,0,12.5,9.58Z"/><path class="cls-1" d="M16.58,6.15a3.47,3.47,0,0,0-.51-.92l0-.05L15.91,5c-.23-.35-.42-.64-.6-.86a2.05,2.05,0,0,0-.63-.55,2.16,2.16,0,0,0-.81-.22c-.28,0-.63,0-1,0H7.18c-.42,0-.76,0-1,0a2.16,2.16,0,0,0-.81.22,1.94,1.94,0,0,0-.63.55c-.18.22-.37.51-.61.86L4,5.18l0,.05a3.7,3.7,0,0,0-.5.92,3.63,3.63,0,0,0-.09,1V13A16.34,16.34,0,0,0,3.4,14.8,2.08,2.08,0,0,0,4,16.06a2.07,2.07,0,0,0,1.25.54,14.19,14.19,0,0,0,1.86.07H13a14,14,0,0,0,1.85-.07,2.13,2.13,0,0,0,1.26-.54,2.07,2.07,0,0,0,.54-1.26A14,14,0,0,0,16.67,13V7.2A3.63,3.63,0,0,0,16.58,6.15ZM4.22,6.39a3.5,3.5,0,0,1,.44-.75l.12-.17c.24-.37.41-.63.56-.82a1.38,1.38,0,0,1,.38-.34,1.29,1.29,0,0,1,.49-.12c.24,0,.55,0,1,0h5.6c.45,0,.75,0,1,0a1.24,1.24,0,0,1,.49.12,1.38,1.38,0,0,1,.38.34c.15.19.32.45.57.82l.12.17a3.27,3.27,0,0,1,.43.75,3.09,3.09,0,0,1,.06.87V7.5H4.17V7.26A3.27,3.27,0,0,1,4.22,6.39Zm11.56,8.3a1.33,1.33,0,0,1-.31.78,1.3,1.3,0,0,1-.78.31,16.78,16.78,0,0,1-1.77.05H7.09a17,17,0,0,1-1.78-.05,1.29,1.29,0,0,1-.77-.31,1.21,1.21,0,0,1-.31-.78,14.09,14.09,0,0,1-.06-1.77V8.33H15.84v4.59A14.09,14.09,0,0,1,15.78,14.69Z"/></svg>