<svg id="Layer_1" data-name="Layer 1" xmlns="http://www.w3.org/2000/svg" viewBox="0 0 20 20"><defs><style>.cls-1{fill-rule:evenodd;}</style></defs><path class="cls-1" d="M10,2.92A7.08,7.08,0,1,0,17.09,10,7.08,7.08,0,0,0,10,2.92ZM2.09,10A7.92,7.92,0,1,1,10,17.92,7.92,7.92,0,0,1,2.09,10Z"/><path d="M10.42,15a.42.42,0,0,1-.42.42.42.42,0,0,1,0-.84A.42.42,0,0,1,10.42,15Z"/><path class="cls-1" d="M7.09,8.33a2.92,2.92,0,0,1,5.83,0v.22a3.13,3.13,0,0,1-1.39,2.6l-.5.33a1.38,1.38,0,0,0-.61,1.14v.71H9.59v-.71a2.19,2.19,0,0,1,1-1.83l.5-.33a2.3,2.3,0,0,0,1-1.91V8.33a2.09,2.09,0,0,0-4.17,0Z"/></svg>