<svg id="Layer_1" data-name="Layer 1" xmlns="http://www.w3.org/2000/svg" viewBox="0 0 12 13"><defs><style>.cls-1{fill-rule:evenodd;}</style></defs><path class="cls-1" d="M5,8.29A.29.29,0,0,1,4.71,8V6.5a.29.29,0,1,1,.57,0V8A.29.29,0,0,1,5,8.29Z"/><path class="cls-1" d="M7,8.29A.29.29,0,0,1,6.71,8V6.5a.29.29,0,1,1,.57,0V8A.29.29,0,0,1,7,8.29Z"/><path class="cls-1" d="M2.07,4.31a3.37,3.37,0,0,0-.57,0V3.71h9v.58a3.37,3.37,0,0,0-.57,0,.88.88,0,0,0-.62.62,3.37,3.37,0,0,0,0,.57V8.24a9.27,9.27,0,0,1,0,1.27A1.26,1.26,0,0,1,8,10.74a9.27,9.27,0,0,1-1.27,0H5.26a9.27,9.27,0,0,1-1.27,0,1.38,1.38,0,0,1-.86-.37,1.38,1.38,0,0,1-.37-.86,9.27,9.27,0,0,1,0-1.27V5.5a3.37,3.37,0,0,0,0-.57A.88.88,0,0,0,2.07,4.31ZM9,4.29H3a1.33,1.33,0,0,1,.24.51,2.45,2.45,0,0,1,0,.66V8.21a10,10,0,0,0,0,1.22.77.77,0,0,0,.21.53.82.82,0,0,0,.53.22c.29,0,.67,0,1.22,0H6.71c.55,0,.93,0,1.22,0A.82.82,0,0,0,8.46,10a.77.77,0,0,0,.21-.53,10,10,0,0,0,0-1.22V5.46a2.45,2.45,0,0,1,0-.66A1.33,1.33,0,0,1,9,4.29Z"/><path class="cls-1" d="M6.66,1.77A3.45,3.45,0,0,0,6,1.71a3.3,3.3,0,0,0-.66.06l-.27.07A.62.62,0,0,0,4.84,2a.28.28,0,0,0,0,.4.29.29,0,0,0,.4,0l0,0,.17,0a3.13,3.13,0,0,1,.56,0,3,3,0,0,1,.55,0l.18,0,0,0a.29.29,0,0,0,.4,0,.28.28,0,0,0,0-.4.71.71,0,0,0-.23-.14Z"/></svg>