<svg id="Layer_1" data-name="Layer 1" xmlns="http://www.w3.org/2000/svg" viewBox="0 0 18 18"><defs><style>.cls-1{fill:#9a85a0;fill-rule:evenodd;}</style></defs><path class="cls-1" d="M5.22,4.13h7.56a11.94,11.94,0,0,1,1.67,0,1.88,1.88,0,0,1,1.13.49,1.88,1.88,0,0,1,.49,1.13,13.43,13.43,0,0,1,.06,1.67v5.31a13.43,13.43,0,0,1-.06,1.67,1.68,1.68,0,0,1-1.62,1.62,13.43,13.43,0,0,1-1.67.06H5.22a13.43,13.43,0,0,1-1.67-.06,1.88,1.88,0,0,1-1.13-.49,1.88,1.88,0,0,1-.49-1.13,11.94,11.94,0,0,1-.05-1.67V7.47A11.94,11.94,0,0,1,1.93,5.8a1.88,1.88,0,0,1,.49-1.13,1.88,1.88,0,0,1,1.13-.49A11.94,11.94,0,0,1,5.22,4.13Zm-1.57.8A1.21,1.21,0,0,0,3,5.2a1.21,1.21,0,0,0-.27.7,13.75,13.75,0,0,0-.05,1.6v5.25a13.75,13.75,0,0,0,.05,1.6,1.21,1.21,0,0,0,.27.7,1.21,1.21,0,0,0,.7.27,13.3,13.3,0,0,0,1.6.06h7.5a13.3,13.3,0,0,0,1.6-.06,1.21,1.21,0,0,0,.7-.27,1.21,1.21,0,0,0,.27-.7,13.3,13.3,0,0,0,.06-1.6V7.5a13.3,13.3,0,0,0-.06-1.6,1.21,1.21,0,0,0-.27-.7,1.21,1.21,0,0,0-.7-.27,13.75,13.75,0,0,0-1.6,0H5.25A13.75,13.75,0,0,0,3.65,4.93Z"/><path class="cls-1" d="M1.88,8.25a.36.36,0,0,1,.37-.37h13.5a.37.37,0,0,1,.38.37.38.38,0,0,1-.38.38H2.25A.37.37,0,0,1,1.88,8.25Z"/><path class="cls-1" d="M6.38,12a.36.36,0,0,1,.37-.37h4.5a.37.37,0,0,1,.38.37.38.38,0,0,1-.38.38H6.75A.37.37,0,0,1,6.38,12Z"/><path class="cls-1" d="M6,1.88a.37.37,0,0,1,.38.37v3A.38.38,0,0,1,6,5.63a.37.37,0,0,1-.37-.38v-3A.36.36,0,0,1,6,1.88Z"/><path class="cls-1" d="M12,1.88a.37.37,0,0,1,.38.37v3a.38.38,0,0,1-.38.38.37.37,0,0,1-.37-.38v-3A.36.36,0,0,1,12,1.88Z"/></svg>