<svg width="21" height="21" viewBox="0 0 21 21" fill="none" xmlns="http://www.w3.org/2000/svg">
<path fill-rule="evenodd" clip-rule="evenodd" d="M1.3125 10.5C1.3125 12.9367 2.28047 15.2736 4.00346 16.9965C5.72645 18.7195 8.06332 19.6875 10.5 19.6875C12.9367 19.6875 15.2736 18.7195 16.9965 16.9965C18.7195 15.2736 19.6875 12.9367 19.6875 10.5C19.6875 8.06332 18.7195 5.72645 16.9965 4.00346C15.2736 2.28047 12.9367 1.3125 10.5 1.3125C8.06332 1.3125 5.72645 2.28047 4.00346 4.00346C2.28047 5.72645 1.3125 8.06332 1.3125 10.5V10.5ZM21 10.5C21 13.2848 19.8938 15.9555 17.9246 17.9246C15.9555 19.8938 13.2848 21 10.5 21C7.71523 21 5.04451 19.8938 3.07538 17.9246C1.10625 15.9555 0 13.2848 0 10.5C0 7.71523 1.10625 5.04451 3.07538 3.07538C5.04451 1.10625 7.71523 0 10.5 0C13.2848 0 15.9555 1.10625 17.9246 3.07538C19.8938 5.04451 21 7.71523 21 10.5V10.5ZM11.1562 5.90625C11.1562 5.7322 11.0871 5.56528 10.964 5.44221C10.841 5.31914 10.674 5.25 10.5 5.25C10.326 5.25 10.159 5.31914 10.036 5.44221C9.91289 5.56528 9.84375 5.7322 9.84375 5.90625V13.5096L7.02713 10.6916C6.9039 10.5684 6.73677 10.4992 6.5625 10.4992C6.38823 10.4992 6.2211 10.5684 6.09787 10.6916C5.97465 10.8149 5.90542 10.982 5.90542 11.1562C5.90542 11.3305 5.97465 11.4976 6.09787 11.6209L10.0354 15.5584C10.0963 15.6195 10.1688 15.668 10.2485 15.7011C10.3282 15.7341 10.4137 15.7512 10.5 15.7512C10.5863 15.7512 10.6718 15.7341 10.7515 15.7011C10.8312 15.668 10.9037 15.6195 10.9646 15.5584L14.9021 11.6209C15.0254 11.4976 15.0946 11.3305 15.0946 11.1562C15.0946 10.982 15.0254 10.8149 14.9021 10.6916C14.7789 10.5684 14.6118 10.4992 14.4375 10.4992C14.2632 10.4992 14.0961 10.5684 13.9729 10.6916L11.1562 13.5096V5.90625Z" fill="white"/>
</svg>
