<svg width="32" height="32" viewBox="0 0 32 32" fill="none" xmlns="http://www.w3.org/2000/svg">
<path d="M16 0C7.16146 0 0 7.16146 0 16C0 23.1198 4.65625 29.1458 11.0833 31.224C10.5104 26.9531 10.8438 21.9219 12.5885 17.9375C14.5104 13.5677 19.6094 11.0885 19.6094 11.0885C19.6094 11.0885 13.9219 12.1719 11.0885 16.8958C9.58333 19.401 8.75 23.8281 8.75 23.8281C8.75 23.8281 3.39063 16.5938 9.82292 10.526C14.1198 6.46875 23.099 7.29167 25.6094 8.73958C22.2813 14.0156 24.25 19.5208 20.6354 22.8333C16.6615 26.4844 12.2604 25.8594 12.2604 25.8594C12.2604 25.8594 12.1563 28.349 13.2917 31.75C14.1719 31.9063 15.0729 32 16 32C24.8385 32 32 24.8385 32 16C32 7.16146 24.8385 0 16 0Z" fill="#FFD670"/>
</svg>
