<svg id="Layer_1" data-name="Layer 1" xmlns="http://www.w3.org/2000/svg" viewBox="0 0 18 18"><defs><style>.cls-1{fill:#9a85a0;fill-rule:evenodd;}</style></defs><path class="cls-1" d="M14.11,5.61A7.56,7.56,0,0,0,13.53,5L13,4.47a7.56,7.56,0,0,0-.62-.58,1.1,1.1,0,0,0-1.47,0,6.22,6.22,0,0,0-.62.58L3.84,10.93l0,0a1.84,1.84,0,0,0-.31.38,1.74,1.74,0,0,0-.16.47v0l-.61,2.45v0a2.17,2.17,0,0,0-.07.35.64.64,0,0,0,.17.53.61.61,0,0,0,.53.17,2.17,2.17,0,0,0,.35-.07h0l2.45-.62h0a1.74,1.74,0,0,0,.47-.16,1.84,1.84,0,0,0,.38-.31l0,0,6.46-6.45a7.51,7.51,0,0,0,.58-.63,1.1,1.1,0,0,0,0-1.47ZM6.44,13.52l-.21.2L6,13.8l-2.33.58.58-2.33c.06-.22.07-.25.08-.28l.2-.21,5.1-5.1,2,2Zm7-7a5.27,5.27,0,0,1-.52.56l-.7.7-2-2,.7-.7a5.27,5.27,0,0,1,.56-.52c.12-.1.17-.1.18-.1s.07,0,.19.1a6.5,6.5,0,0,1,.56.52l.47.47a6.5,6.5,0,0,1,.52.56c.1.12.1.17.1.19S13.49,6.41,13.39,6.53Z"/></svg>