<svg width="29" height="29" viewBox="0 0 29 29" fill="none" xmlns="http://www.w3.org/2000/svg">
<path d="M14.5 0C6.49181 0 0 6.49181 0 14.5C0 22.5082 6.49181 29 14.5 29C22.5082 29 29 22.5082 29 14.5C29 6.49181 22.5082 0 14.5 0Z" fill="#40B3E0"/>
<path d="M21.5547 8.34099L18.9648 21.3988C18.9648 21.3988 18.6026 22.3044 17.6065 21.8697L11.63 17.2877L9.45685 16.2374L5.79854 15.0058C5.79854 15.0058 5.23712 14.8066 5.18275 14.372C5.12837 13.9373 5.81667 13.7019 5.81667 13.7019L20.3593 7.99707C20.3593 7.99707 21.5546 7.47189 21.5546 8.34121" fill="white"/>
<path d="M11.1671 21.2521C11.1671 21.2521 10.9926 21.2358 10.7751 20.5475C10.558 19.8593 9.45312 16.2373 9.45312 16.2373L18.2367 10.6593C18.2367 10.6593 18.7439 10.3514 18.7258 10.6593C18.7258 10.6593 18.8163 10.7137 18.5445 10.9672C18.273 11.2208 11.6446 17.1791 11.6446 17.1791" fill="#D2E5F1"/>
<path d="M13.9227 19.0443L11.5588 21.1996C11.5588 21.1996 11.374 21.3398 11.1719 21.2519L11.6245 17.2485" fill="#B5CFE4"/>
</svg>
