<svg width="668" height="208" viewBox="0 0 668 208" fill="none" xmlns="http://www.w3.org/2000/svg" preserveAspectRatio="xMidYMid slice">
    <rect width="668" height="208" fill="#301039" />
    <rect width="668" height="208" fill="url(#paint0_radial_1660_72716)" fill-opacity="0.4" />
    <rect width="668" height="208" fill="url(#paint1_radial_1660_72716)" fill-opacity="0.2" />
    <g opacity="0.1">
        <path fill-rule="evenodd" clip-rule="evenodd"
            d="M609.18 79.7959C610.544 79.7959 611.65 80.9015 611.65 82.2653V104.953C611.65 106.317 610.544 107.422 609.18 107.422C607.817 107.422 606.711 106.317 606.711 104.953V82.2653C606.711 80.9015 607.817 79.7959 609.18 79.7959Z"
            fill="white" />
        <path fill-rule="evenodd" clip-rule="evenodd"
            d="M595.367 93.609C595.367 92.2452 596.473 91.1396 597.837 91.1396H620.524C621.888 91.1396 622.993 92.2452 622.993 93.609C622.993 94.9728 621.888 96.0784 620.524 96.0784H597.837C596.473 96.0784 595.367 94.9728 595.367 93.609Z"
            fill="white" />
        <path fill-rule="evenodd" clip-rule="evenodd"
            d="M530.735 35.3467C532.099 35.3467 533.204 36.4523 533.204 37.8161V56.7223C533.204 58.0861 532.099 59.1917 530.735 59.1917C529.371 59.1917 528.266 58.0861 528.266 56.7223V37.8161C528.266 36.4523 529.371 35.3467 530.735 35.3467Z"
            fill="white" />
        <path fill-rule="evenodd" clip-rule="evenodd"
            d="M518.812 47.2692C518.812 45.9054 519.918 44.7998 521.282 44.7998H540.188C541.552 44.7998 542.658 45.9054 542.658 47.2692C542.658 48.633 541.552 49.7386 540.188 49.7386H521.282C519.918 49.7386 518.812 48.633 518.812 47.2692Z"
            fill="white" />
        <path fill-rule="evenodd" clip-rule="evenodd"
            d="M585.641 111.898C587.005 111.898 588.111 113.004 588.111 114.367V129.492C588.111 130.856 587.005 131.962 585.641 131.962C584.277 131.962 583.172 130.856 583.172 129.492V114.367C583.172 113.004 584.277 111.898 585.641 111.898Z"
            fill="white" />
        <path fill-rule="evenodd" clip-rule="evenodd"
            d="M575.609 121.93C575.609 120.566 576.715 119.46 578.079 119.46H593.204C594.568 119.46 595.673 120.566 595.673 121.93C595.673 123.294 594.568 124.399 593.204 124.399H578.079C576.715 124.399 575.609 123.294 575.609 121.93Z"
            fill="white" />
        <path fill-rule="evenodd" clip-rule="evenodd"
            d="M523.576 112.819C523.064 113.332 523.064 114.162 523.576 114.675L533.352 124.451C533.864 124.963 534.695 124.963 535.207 124.451L605.493 54.1644C606.006 53.6521 606.006 52.8215 605.493 52.3092L595.718 42.5333C595.205 42.021 594.375 42.021 593.862 42.5333L523.576 112.819ZM520.084 118.167C517.643 115.726 517.643 111.768 520.084 109.327L590.37 39.0411C592.811 36.6 596.769 36.6 599.21 39.0411L608.986 48.8169C611.427 51.258 611.427 55.2157 608.986 57.6567L538.7 127.943C536.259 130.384 532.301 130.384 529.86 127.943L520.084 118.167Z"
            fill="white" />
        <path fill-rule="evenodd" clip-rule="evenodd"
            d="M570.317 59.0665C571.281 58.1022 572.845 58.1022 573.809 59.0665L588.934 74.1915C589.899 75.1559 589.899 76.7194 588.934 77.6838C587.97 78.6481 586.406 78.6481 585.442 77.6838L570.317 62.5588C569.353 61.5944 569.353 60.0309 570.317 59.0665Z"
            fill="white" />
    </g>
    <defs>
        <radialGradient id="paint0_radial_1660_72716" cx="0" cy="0" r="1" gradientUnits="userSpaceOnUse"
            gradientTransform="translate(656 -25.8802) rotate(132.557) scale(336.379 421.504)">
            <stop stop-color="#B04DFF" />
            <stop offset="1" stop-color="#B04DFF" stop-opacity="0" />
        </radialGradient>
        <radialGradient id="paint1_radial_1660_72716" cx="0" cy="0" r="1" gradientUnits="userSpaceOnUse"
            gradientTransform="translate(73.5 196.977) rotate(-31.9391) scale(240.982 292.643)">
            <stop stop-color="#FF3838" />
            <stop offset="1" stop-color="#FF3838" stop-opacity="0" />
        </radialGradient>
    </defs>
</svg>