<svg width="58" height="58" viewBox="0 0 58 58" fill="none" xmlns="http://www.w3.org/2000/svg">
<circle cx="29" cy="29" r="29" fill="#FFD670"/>
<path d="M29 23H40C40.2652 23 40.5196 23.1054 40.7071 23.2929C40.8946 23.4804 41 23.7348 41 24V38C41 38.2652 40.8946 38.5196 40.7071 38.7071C40.5196 38.8946 40.2652 39 40 39H18C17.7348 39 17.4804 38.8946 17.2929 38.7071C17.1054 38.5196 17 38.2652 17 38V26" stroke="white" stroke-width="2" stroke-linecap="round" stroke-linejoin="round"/>
<path d="M24.6625 26H17V21C17 20.7348 17.1054 20.4804 17.2929 20.2929C17.4804 20.1054 17.7348 20 18 20H24.6625C24.8787 20.0009 25.089 20.071 25.2625 20.2L29 23L25.2625 25.8C25.089 25.929 24.8787 25.9991 24.6625 26V26Z" stroke="white" stroke-width="2" stroke-linecap="round" stroke-linejoin="round"/>
<path d="M26 31.5H32" stroke="white" stroke-width="2" stroke-linecap="round" stroke-linejoin="round"/>
<path d="M29 28.5V34.5" stroke="white" stroke-width="2" stroke-linecap="round" stroke-linejoin="round"/>
</svg>
