<svg width="58" height="58" viewBox="0 0 58 58" fill="none" xmlns="http://www.w3.org/2000/svg">
<circle cx="29" cy="29" r="29" fill="#FFD670"/>
<path d="M17.2624 30.5872C16.1416 28.6989 15.7488 26.4664 16.1576 24.3089C16.5665 22.1515 17.749 20.2175 19.483 18.8703C21.217 17.523 23.3832 16.8552 25.5748 16.9922C27.7664 17.1292 29.8326 18.0616 31.3853 19.6143C32.938 21.167 33.8705 23.2332 34.0075 25.4248C34.1445 27.6164 33.4766 29.7826 32.1294 31.5166C30.7821 33.2506 28.8482 34.4331 26.6907 34.842C24.5332 35.2509 22.3007 34.858 20.4124 33.7372L17.2999 34.6247C17.1717 34.6608 17.0361 34.662 16.9073 34.6283C16.7784 34.5947 16.6608 34.5272 16.5666 34.4331C16.4724 34.3389 16.405 34.2213 16.3713 34.0924C16.3376 33.9635 16.3389 33.828 16.3749 33.6997L17.2624 30.5872Z" stroke="white" stroke-width="2" stroke-linecap="round" stroke-linejoin="round"/>
<path d="M24.5156 34.9877C24.9562 36.2438 25.6702 37.3863 26.6062 38.3327C27.5422 39.2792 28.6767 40.0059 29.9278 40.4604C31.1788 40.9149 32.5153 41.0858 33.8405 40.9609C35.1657 40.8359 36.4466 40.4181 37.5906 39.7377V39.7377L40.7031 40.6252C40.8314 40.6612 40.9669 40.6625 41.0958 40.6288C41.2247 40.5951 41.3423 40.5277 41.4364 40.4335C41.5306 40.3393 41.5981 40.2217 41.6317 40.0929C41.6654 39.964 41.6642 39.8284 41.6281 39.7002L40.7406 36.5877C41.533 35.2577 41.9683 33.7456 42.0045 32.1979C42.0407 30.6502 41.6765 29.1194 40.9472 27.7539C40.2179 26.3883 39.1482 25.2343 37.8418 24.4036C36.5354 23.573 35.0366 23.0939 33.4906 23.0127" stroke="white" stroke-width="2" stroke-linecap="round" stroke-linejoin="round"/>
</svg>
